<svg width="1200" height="840" viewBox="0 0 1200 840" xmlns="http://www.w3.org/2000/svg" role="img" aria-label="E-commerce analytics mockup">
  <defs>
    <linearGradient id="bg2" x1="0" y1="0" x2="1" y2="1">
      <stop offset="0%" stop-color="#1b1a3e"/>
      <stop offset="100%" stop-color="#0a1023"/>
    </linearGradient>
    <linearGradient id="card" x1="0" y1="0" x2="1" y2="1">
      <stop offset="0%" stop-color="#222f64"/>
      <stop offset="100%" stop-color="#152048"/>
    </linearGradient>
  </defs>
  <rect width="1200" height="840" rx="42" fill="url(#bg2)"/>
  <rect x="64" y="64" width="1072" height="712" rx="34" fill="#121936" stroke="#2f3e7e"/>
  <rect x="104" y="108" width="992" height="110" rx="20" fill="#0e1837"/>
  <rect x="132" y="138" width="230" height="50" rx="12" fill="url(#card)"/>
  <rect x="388" y="138" width="230" height="50" rx="12" fill="url(#card)"/>
  <rect x="644" y="138" width="230" height="50" rx="12" fill="url(#card)"/>
  <rect x="900" y="138" width="168" height="50" rx="12" fill="#6fd5ff"/>
  <rect x="104" y="244" width="470" height="492" rx="22" fill="#0d1634"/>
  <rect x="604" y="244" width="492" height="232" rx="22" fill="#0d1634"/>
  <rect x="604" y="504" width="492" height="232" rx="22" fill="#0d1634"/>
  <rect x="160" y="314" width="96" height="342" rx="18" fill="#27386e"/>
  <rect x="278" y="384" width="96" height="272" rx="18" fill="#27386e"/>
  <rect x="396" y="286" width="96" height="370" rx="18" fill="#72f4c8"/>
  <polyline points="646,422 716,376 786,402 854,334 932,312 1002,286 1070,298" fill="none" stroke="#44d0ff" stroke-width="10" stroke-linecap="round" stroke-linejoin="round"/>
  <circle cx="760" cy="620" r="52" fill="#233467"/>
  <circle cx="852" cy="620" r="52" fill="#2a3f78"/>
  <circle cx="944" cy="620" r="52" fill="#31488a"/>
  <circle cx="1036" cy="620" r="52" fill="#72f4c8"/>
</svg>
