<svg width="1200" height="840" viewBox="0 0 1200 840" xmlns="http://www.w3.org/2000/svg" role="img" aria-label="Branding campaign mockup">
  <defs>
    <linearGradient id="bg3" x1="0" y1="0" x2="1" y2="1">
      <stop offset="0%" stop-color="#2a1638"/>
      <stop offset="100%" stop-color="#100a1f"/>
    </linearGradient>
    <linearGradient id="sun" x1="0" y1="0" x2="1" y2="1">
      <stop offset="0%" stop-color="#ffb584"/>
      <stop offset="100%" stop-color="#ff6fa7"/>
    </linearGradient>
  </defs>
  <rect width="1200" height="840" rx="42" fill="url(#bg3)"/>
  <circle cx="992" cy="142" r="132" fill="url(#sun)" opacity="0.85"/>
  <rect x="64" y="64" width="1072" height="712" rx="36" fill="#1a122f" stroke="#4b2b67"/>
  <rect x="112" y="112" width="360" height="616" rx="26" fill="#291b45"/>
  <rect x="500" y="112" width="588" height="184" rx="26" fill="#291b45"/>
  <rect x="500" y="326" width="286" height="402" rx="26" fill="#291b45"/>
  <rect x="802" y="326" width="286" height="402" rx="26" fill="#291b45"/>
  <text x="150" y="196" fill="#f6e8ff" font-size="68" font-family="Arial" font-weight="700">Campaign</text>
  <text x="150" y="258" fill="#bca9d9" font-size="34" font-family="Arial">Visual direction and launch assets</text>
  <path d="M150 360 C210 300, 310 420, 390 340" fill="none" stroke="#ff7da7" stroke-width="12" stroke-linecap="round"/>
  <path d="M150 438 C220 378, 300 488, 390 430" fill="none" stroke="#f3bf6f" stroke-width="12" stroke-linecap="round"/>
  <path d="M150 518 C208 466, 306 564, 390 510" fill="none" stroke="#72f4c8" stroke-width="12" stroke-linecap="round"/>
  <rect x="536" y="154" width="228" height="26" rx="13" fill="#3b2758"/>
  <rect x="536" y="196" width="380" height="26" rx="13" fill="#3b2758"/>
  <rect x="536" y="238" width="306" height="26" rx="13" fill="#3b2758"/>
  <circle cx="646" cy="528" r="88" fill="none" stroke="#4d326f" stroke-width="24"/>
  <circle cx="646" cy="528" r="88" fill="none" stroke="#ff7da7" stroke-width="24" stroke-dasharray="364" stroke-dashoffset="132" transform="rotate(-90 646 528)"/>
  <text x="610" y="542" fill="#ffe8f2" font-size="40" font-family="Arial" font-weight="700">64%</text>
  <rect x="850" y="470" width="190" height="34" rx="16" fill="#3b2758"/>
  <rect x="850" y="520" width="150" height="34" rx="16" fill="#ff7da7"/>
  <rect x="850" y="570" width="210" height="34" rx="16" fill="#f3bf6f"/>
  <rect x="850" y="620" width="130" height="34" rx="16" fill="#72f4c8"/>
</svg>
