<svg width="1200" height="840" viewBox="0 0 1200 840" xmlns="http://www.w3.org/2000/svg" role="img" aria-label="Project dashboard mockup">
  <defs>
    <linearGradient id="bg" x1="0" y1="0" x2="1" y2="1">
      <stop offset="0%" stop-color="#0f1d45"/>
      <stop offset="100%" stop-color="#0b1126"/>
    </linearGradient>
    <linearGradient id="accent" x1="0" y1="0" x2="1" y2="0">
      <stop offset="0%" stop-color="#42d5ff"/>
      <stop offset="100%" stop-color="#70f3cb"/>
    </linearGradient>
  </defs>
  <rect width="1200" height="840" rx="42" fill="url(#bg)"/>
  <rect x="68" y="70" width="1064" height="700" rx="28" fill="#121d40" stroke="#2f447a"/>
  <rect x="108" y="120" width="260" height="52" rx="12" fill="#1b2a58"/>
  <rect x="392" y="120" width="220" height="52" rx="12" fill="#1b2a58"/>
  <rect x="108" y="218" width="1024" height="228" rx="24" fill="#0d1634"/>
  <polyline points="148,382 264,344 390,366 506,300 658,270 790,232 936,244 1076,212" fill="none" stroke="url(#accent)" stroke-width="14" stroke-linecap="round" stroke-linejoin="round"/>
  <rect x="108" y="486" width="490" height="240" rx="22" fill="#0d1634"/>
  <rect x="642" y="486" width="490" height="240" rx="22" fill="#0d1634"/>
  <rect x="152" y="534" width="62" height="144" rx="14" fill="#2e497f"/>
  <rect x="230" y="562" width="62" height="116" rx="14" fill="#2e497f"/>
  <rect x="308" y="520" width="62" height="158" rx="14" fill="#2e497f"/>
  <rect x="386" y="494" width="62" height="184" rx="14" fill="url(#accent)"/>
  <circle cx="886" cy="606" r="86" fill="none" stroke="#2d4677" stroke-width="28"/>
  <circle cx="886" cy="606" r="86" fill="none" stroke="#72f4c8" stroke-width="28" stroke-dasharray="364" stroke-dashoffset="95" transform="rotate(-90 886 606)"/>
  <text x="846" y="620" fill="#ecf4ff" font-size="44" font-family="Arial" font-weight="700">74%</text>
</svg>
