<svg width="1200" height="840" viewBox="0 0 1200 840" xmlns="http://www.w3.org/2000/svg" role="img" aria-label="WB card slide 2">
  <rect width="1200" height="840" rx="36" fill="#FAFAFA"/>
  <rect x="72" y="72" width="1056" height="696" rx="30" fill="#FFFFFF" stroke="#D0D2CF"/>
  <rect x="118" y="118" width="420" height="46" rx="12" fill="#D0D2CF"/>
  <rect x="562" y="118" width="180" height="46" rx="12" fill="#86612F"/>
  <rect x="764" y="118" width="320" height="46" rx="12" fill="#F6EFE5" stroke="#D0D2CF"/>
  <rect x="118" y="196" width="304" height="250" rx="24" fill="#F8F6F2" stroke="#D0D2CF"/>
  <rect x="450" y="196" width="304" height="250" rx="24" fill="#F8F6F2" stroke="#D0D2CF"/>
  <rect x="782" y="196" width="304" height="250" rx="24" fill="#F8F6F2" stroke="#D0D2CF"/>
  <rect x="118" y="478" width="968" height="246" rx="24" fill="#F6F3ED" stroke="#D0D2CF"/>
  <rect x="154" y="530" width="54" height="142" rx="14" fill="#D0D2CF"/>
  <rect x="224" y="560" width="54" height="112" rx="14" fill="#D0D2CF"/>
  <rect x="294" y="510" width="54" height="162" rx="14" fill="#86612F"/>
  <rect x="364" y="580" width="54" height="92" rx="14" fill="#D0D2CF"/>
  <circle cx="740" cy="598" r="92" fill="none" stroke="#D0D2CF" stroke-width="30"/>
  <circle cx="740" cy="598" r="92" fill="none" stroke="#86612F" stroke-width="30" stroke-dasharray="360" stroke-dashoffset="126" transform="rotate(-90 740 598)"/>
  <text x="698" y="612" fill="#52311B" font-size="40" font-family="Arial" font-weight="700">65%</text>
  <rect x="868" y="540" width="180" height="28" rx="10" fill="#D0D2CF"/>
  <rect x="868" y="582" width="220" height="28" rx="10" fill="#D0D2CF"/>
  <rect x="868" y="624" width="150" height="28" rx="10" fill="#86612F"/>
</svg>
