<svg width="1200" height="840" viewBox="0 0 1200 840" xmlns="http://www.w3.org/2000/svg" role="img" aria-label="Ozon card slide 2">
  <rect width="1200" height="840" rx="36" fill="#FAFAFA"/>
  <rect x="66" y="66" width="1068" height="708" rx="30" fill="#FFFFFF" stroke="#D0D2CF"/>
  <rect x="112" y="112" width="460" height="620" rx="26" fill="#F8F6F2" stroke="#D0D2CF"/>
  <rect x="602" y="112" width="486" height="290" rx="26" fill="#F8F6F2" stroke="#D0D2CF"/>
  <rect x="602" y="442" width="486" height="290" rx="26" fill="#F8F6F2" stroke="#D0D2CF"/>
  <rect x="148" y="152" width="388" height="220" rx="20" fill="#FFFFFF" stroke="#D0D2CF"/>
  <rect x="148" y="400" width="388" height="292" rx="20" fill="#FFFFFF" stroke="#D0D2CF"/>
  <rect x="638" y="152" width="210" height="28" rx="10" fill="#86612F"/>
  <rect x="638" y="194" width="320" height="24" rx="8" fill="#D0D2CF"/>
  <rect x="638" y="232" width="280" height="24" rx="8" fill="#D0D2CF"/>
  <rect x="638" y="270" width="240" height="24" rx="8" fill="#D0D2CF"/>
  <polyline points="638,672 702,632 766,648 834,604 900,620 968,560 1040,578" fill="none" stroke="#86612F" stroke-width="10" stroke-linecap="round" stroke-linejoin="round"/>
  <text x="638" y="552" fill="#52311B" font-size="34" font-family="Arial" font-weight="700">Conversion +31%</text>
</svg>
